<svg width="22" height="22" viewBox="0 0 22 22" fill="none" xmlns="http://www.w3.org/2000/svg">
<path d="M19.5908 19.8584L17.8115 18.0791M10.2495 18.9688C11.3594 18.9688 12.4584 18.7501 13.4838 18.3254C14.5092 17.9007 15.4409 17.2781 16.2257 16.4933C17.0105 15.7085 17.6331 14.7768 18.0578 13.7514C18.4826 12.726 18.7012 11.627 18.7012 10.5171C18.7012 9.4072 18.4826 8.30818 18.0578 7.28278C17.6331 6.25738 17.0105 5.32567 16.2257 4.54086C15.4409 3.75605 14.5092 3.13351 13.4838 2.70877C12.4584 2.28404 11.3594 2.06543 10.2495 2.06543C8.00799 2.06543 5.85828 2.95587 4.27329 4.54086C2.68829 6.12586 1.79785 8.27557 1.79785 10.5171C1.79785 12.7586 2.68829 14.9083 4.27329 16.4933C5.85828 18.0783 8.00799 18.9687 10.2495 18.9688Z" stroke="white" stroke-width="1.33447" stroke-linecap="round" stroke-linejoin="round"/>
</svg>
